<mxfile host="app.diagrams.net" agent="Mozilla/5.0 (Windows NT 10.0; Win64; x64) AppleWebKit/537.36 (KHTML, like Gecko) Chrome/141.0.0.0 Safari/537.36" version="28.2.7">
  <diagram name="PÃ¡gina-1" id="AwRUpSsodoV-mbfdirjH">
    <mxGraphModel dx="1489" dy="877" grid="1" gridSize="10" guides="1" tooltips="1" connect="1" arrows="1" fold="1" page="1" pageScale="1" pageWidth="827" pageHeight="1169" math="0" shadow="0">
      <root>
        <mxCell id="0" />
        <mxCell id="1" parent="0" />
        <mxCell id="LaMEoPGliu5TV54WyK8b-77" style="edgeStyle=none;curved=1;rounded=0;orthogonalLoop=1;jettySize=auto;html=1;exitX=0.5;exitY=1;exitDx=0;exitDy=0;entryX=0;entryY=0;entryDx=0;entryDy=0;fontSize=12;startSize=8;endSize=8;endArrow=none;endFill=0;labelBackgroundColor=none;fontColor=default;" edge="1" parent="1" source="LaMEoPGliu5TV54WyK8b-17" target="LaMEoPGliu5TV54WyK8b-62">
          <mxGeometry relative="1" as="geometry" />
        </mxCell>
        <mxCell id="LaMEoPGliu5TV54WyK8b-78" style="edgeStyle=none;curved=1;rounded=0;orthogonalLoop=1;jettySize=auto;html=1;exitX=0.5;exitY=0;exitDx=0;exitDy=0;entryX=0;entryY=1;entryDx=0;entryDy=0;fontSize=12;startSize=8;endSize=8;endArrow=none;endFill=0;labelBackgroundColor=none;fontColor=default;" edge="1" parent="1" source="LaMEoPGliu5TV54WyK8b-17" target="LaMEoPGliu5TV54WyK8b-61">
          <mxGeometry relative="1" as="geometry" />
        </mxCell>
        <mxCell id="LaMEoPGliu5TV54WyK8b-17" value="" style="triangle;whiteSpace=wrap;html=1;labelBackgroundColor=none;fillColor=#647687;fontColor=#ffffff;strokeColor=#314354;" vertex="1" parent="1">
          <mxGeometry x="350" y="320" width="40" height="40" as="geometry" />
        </mxCell>
        <mxCell id="LaMEoPGliu5TV54WyK8b-47" value="personal" style="whiteSpace=wrap;html=1;align=center;labelBackgroundColor=none;fillColor=#008a00;fontColor=#ffffff;strokeColor=#005700;" vertex="1" parent="1">
          <mxGeometry x="200" y="320" width="90" height="40" as="geometry" />
        </mxCell>
        <mxCell id="LaMEoPGliu5TV54WyK8b-50" value="nombre" style="ellipse;whiteSpace=wrap;html=1;align=center;labelBackgroundColor=none;fillColor=#0050ef;strokeColor=#001DBC;fontColor=#ffffff;" vertex="1" parent="1">
          <mxGeometry x="150" y="242.5" width="100" height="40" as="geometry" />
        </mxCell>
        <mxCell id="LaMEoPGliu5TV54WyK8b-51" value="codigo" style="ellipse;whiteSpace=wrap;html=1;align=center;fontStyle=4;labelBackgroundColor=none;fillColor=#0050ef;fontColor=#ffffff;strokeColor=#001DBC;" vertex="1" parent="1">
          <mxGeometry x="80" y="330" width="100" height="40" as="geometry" />
        </mxCell>
        <mxCell id="LaMEoPGliu5TV54WyK8b-52" value="cedula" style="ellipse;whiteSpace=wrap;html=1;align=center;labelBackgroundColor=none;fillColor=#0050ef;fontColor=#ffffff;strokeColor=#001DBC;" vertex="1" parent="1">
          <mxGeometry x="80" y="282.5" width="100" height="40" as="geometry" />
        </mxCell>
        <mxCell id="LaMEoPGliu5TV54WyK8b-53" value="" style="endArrow=none;html=1;rounded=0;fontSize=12;startSize=8;endSize=8;curved=1;exitX=1;exitY=1;exitDx=0;exitDy=0;entryX=0;entryY=0;entryDx=0;entryDy=0;labelBackgroundColor=none;fontColor=default;" edge="1" parent="1" source="LaMEoPGliu5TV54WyK8b-52" target="LaMEoPGliu5TV54WyK8b-47">
          <mxGeometry relative="1" as="geometry">
            <mxPoint x="280" y="390" as="sourcePoint" />
            <mxPoint x="440" y="390" as="targetPoint" />
          </mxGeometry>
        </mxCell>
        <mxCell id="LaMEoPGliu5TV54WyK8b-54" value="" style="shape=link;html=1;rounded=0;fontSize=12;startSize=8;endSize=8;curved=1;exitX=1;exitY=0.5;exitDx=0;exitDy=0;entryX=0;entryY=0.5;entryDx=0;entryDy=0;labelBackgroundColor=none;fontColor=default;" edge="1" parent="1" source="LaMEoPGliu5TV54WyK8b-47" target="LaMEoPGliu5TV54WyK8b-17">
          <mxGeometry relative="1" as="geometry">
            <mxPoint x="440" y="390" as="sourcePoint" />
            <mxPoint x="430" y="330" as="targetPoint" />
          </mxGeometry>
        </mxCell>
        <mxCell id="LaMEoPGliu5TV54WyK8b-55" value="" style="resizable=0;html=1;whiteSpace=wrap;align=right;verticalAlign=bottom;labelBackgroundColor=none;" connectable="0" vertex="1" parent="LaMEoPGliu5TV54WyK8b-54">
          <mxGeometry x="1" relative="1" as="geometry" />
        </mxCell>
        <mxCell id="LaMEoPGliu5TV54WyK8b-57" value="" style="endArrow=none;html=1;rounded=0;fontSize=12;startSize=8;endSize=8;curved=1;exitX=0.5;exitY=1;exitDx=0;exitDy=0;entryX=0.25;entryY=0;entryDx=0;entryDy=0;labelBackgroundColor=none;fontColor=default;" edge="1" parent="1" source="LaMEoPGliu5TV54WyK8b-50" target="LaMEoPGliu5TV54WyK8b-47">
          <mxGeometry relative="1" as="geometry">
            <mxPoint x="195" y="304" as="sourcePoint" />
            <mxPoint x="210" y="320" as="targetPoint" />
          </mxGeometry>
        </mxCell>
        <mxCell id="LaMEoPGliu5TV54WyK8b-58" value="" style="endArrow=none;html=1;rounded=0;fontSize=12;startSize=8;endSize=8;curved=1;exitX=0;exitY=0.5;exitDx=0;exitDy=0;entryX=1;entryY=0.5;entryDx=0;entryDy=0;labelBackgroundColor=none;fontColor=default;" edge="1" parent="1" source="LaMEoPGliu5TV54WyK8b-47" target="LaMEoPGliu5TV54WyK8b-51">
          <mxGeometry relative="1" as="geometry">
            <mxPoint x="290" y="305" as="sourcePoint" />
            <mxPoint x="235" y="320" as="targetPoint" />
          </mxGeometry>
        </mxCell>
        <mxCell id="LaMEoPGliu5TV54WyK8b-61" value="auxiliar" style="whiteSpace=wrap;html=1;align=center;labelBackgroundColor=none;fillColor=#008a00;fontColor=#ffffff;strokeColor=#005700;" vertex="1" parent="1">
          <mxGeometry x="430" y="262.5" width="80" height="32.5" as="geometry" />
        </mxCell>
        <mxCell id="LaMEoPGliu5TV54WyK8b-62" value="veterinario" style="whiteSpace=wrap;html=1;align=center;labelBackgroundColor=none;fillColor=#008a00;fontColor=#ffffff;strokeColor=#005700;" vertex="1" parent="1">
          <mxGeometry x="430" y="380" width="80" height="32.5" as="geometry" />
        </mxCell>
        <mxCell id="LaMEoPGliu5TV54WyK8b-73" style="edgeStyle=none;curved=1;rounded=0;orthogonalLoop=1;jettySize=auto;html=1;exitX=0.5;exitY=1;exitDx=0;exitDy=0;entryX=0.25;entryY=0;entryDx=0;entryDy=0;fontSize=12;startSize=8;endSize=8;endArrow=none;endFill=0;labelBackgroundColor=none;fontColor=default;" edge="1" parent="1" source="LaMEoPGliu5TV54WyK8b-63" target="LaMEoPGliu5TV54WyK8b-61">
          <mxGeometry relative="1" as="geometry" />
        </mxCell>
        <mxCell id="LaMEoPGliu5TV54WyK8b-63" value="codigo" style="ellipse;whiteSpace=wrap;html=1;align=center;fontStyle=4;labelBackgroundColor=none;fillColor=#0050ef;fontColor=#ffffff;strokeColor=#001DBC;" vertex="1" parent="1">
          <mxGeometry x="400" y="180" width="60" height="35" as="geometry" />
        </mxCell>
        <mxCell id="LaMEoPGliu5TV54WyK8b-79" style="edgeStyle=none;curved=1;rounded=0;orthogonalLoop=1;jettySize=auto;html=1;exitX=0.5;exitY=1;exitDx=0;exitDy=0;entryX=0.25;entryY=0;entryDx=0;entryDy=0;fontSize=12;startSize=8;endSize=8;endArrow=none;endFill=0;labelBackgroundColor=none;fontColor=default;" edge="1" parent="1" source="LaMEoPGliu5TV54WyK8b-64" target="LaMEoPGliu5TV54WyK8b-62">
          <mxGeometry relative="1" as="geometry" />
        </mxCell>
        <mxCell id="LaMEoPGliu5TV54WyK8b-64" value="codigo" style="ellipse;whiteSpace=wrap;html=1;align=center;fontStyle=4;labelBackgroundColor=none;fillColor=#0050ef;fontColor=#ffffff;strokeColor=#001DBC;" vertex="1" parent="1">
          <mxGeometry x="430" y="322.5" width="50" height="30" as="geometry" />
        </mxCell>
        <mxCell id="LaMEoPGliu5TV54WyK8b-74" style="edgeStyle=none;curved=1;rounded=0;orthogonalLoop=1;jettySize=auto;html=1;exitX=0.5;exitY=1;exitDx=0;exitDy=0;entryX=0.5;entryY=0;entryDx=0;entryDy=0;fontSize=12;startSize=8;endSize=8;endArrow=none;endFill=0;labelBackgroundColor=none;fontColor=default;" edge="1" parent="1" source="LaMEoPGliu5TV54WyK8b-65" target="LaMEoPGliu5TV54WyK8b-61">
          <mxGeometry relative="1" as="geometry" />
        </mxCell>
        <mxCell id="LaMEoPGliu5TV54WyK8b-65" value="cedula" style="ellipse;whiteSpace=wrap;html=1;align=center;labelBackgroundColor=none;fillColor=#0050ef;fontColor=#ffffff;strokeColor=#001DBC;" vertex="1" parent="1">
          <mxGeometry x="470" y="185" width="50" height="35" as="geometry" />
        </mxCell>
        <mxCell id="LaMEoPGliu5TV54WyK8b-84" style="edgeStyle=none;curved=1;rounded=0;orthogonalLoop=1;jettySize=auto;html=1;exitX=0;exitY=0.5;exitDx=0;exitDy=0;entryX=0.5;entryY=0;entryDx=0;entryDy=0;fontSize=12;startSize=8;endSize=8;endArrow=none;endFill=0;labelBackgroundColor=none;fontColor=default;" edge="1" parent="1" source="LaMEoPGliu5TV54WyK8b-68" target="LaMEoPGliu5TV54WyK8b-62">
          <mxGeometry relative="1" as="geometry" />
        </mxCell>
        <mxCell id="LaMEoPGliu5TV54WyK8b-68" value="fecha_alta" style="ellipse;whiteSpace=wrap;html=1;align=center;labelBackgroundColor=none;fillColor=#0050ef;fontColor=#ffffff;strokeColor=#001DBC;" vertex="1" parent="1">
          <mxGeometry x="490" y="325" width="60" height="30" as="geometry" />
        </mxCell>
        <mxCell id="LaMEoPGliu5TV54WyK8b-75" style="edgeStyle=none;curved=1;rounded=0;orthogonalLoop=1;jettySize=auto;html=1;fontSize=12;startSize=8;endSize=8;endArrow=none;endFill=0;labelBackgroundColor=none;fontColor=default;" edge="1" parent="1" source="LaMEoPGliu5TV54WyK8b-69" target="LaMEoPGliu5TV54WyK8b-61">
          <mxGeometry relative="1" as="geometry" />
        </mxCell>
        <mxCell id="LaMEoPGliu5TV54WyK8b-69" value="nombre" style="ellipse;whiteSpace=wrap;html=1;align=center;labelBackgroundColor=none;fillColor=#0050ef;fontColor=#ffffff;strokeColor=#001DBC;" vertex="1" parent="1">
          <mxGeometry x="540" y="265" width="70" height="30" as="geometry" />
        </mxCell>
        <mxCell id="LaMEoPGliu5TV54WyK8b-76" style="edgeStyle=none;curved=1;rounded=0;orthogonalLoop=1;jettySize=auto;html=1;exitX=0;exitY=1;exitDx=0;exitDy=0;entryX=1;entryY=0;entryDx=0;entryDy=0;fontSize=12;startSize=8;endSize=8;endArrow=none;endFill=0;labelBackgroundColor=none;fontColor=default;" edge="1" parent="1" source="LaMEoPGliu5TV54WyK8b-70" target="LaMEoPGliu5TV54WyK8b-61">
          <mxGeometry relative="1" as="geometry" />
        </mxCell>
        <mxCell id="LaMEoPGliu5TV54WyK8b-70" value="base_cotizacion" style="ellipse;whiteSpace=wrap;html=1;align=center;labelBackgroundColor=none;fillColor=#0050ef;fontColor=#ffffff;strokeColor=#001DBC;" vertex="1" parent="1">
          <mxGeometry x="520" y="210" width="100" height="30" as="geometry" />
        </mxCell>
        <mxCell id="LaMEoPGliu5TV54WyK8b-85" style="edgeStyle=none;curved=1;rounded=0;orthogonalLoop=1;jettySize=auto;html=1;exitX=0;exitY=0.5;exitDx=0;exitDy=0;entryX=1;entryY=0;entryDx=0;entryDy=0;fontSize=12;startSize=8;endSize=8;endArrow=none;endFill=0;labelBackgroundColor=none;fontColor=default;" edge="1" parent="1" source="LaMEoPGliu5TV54WyK8b-80" target="LaMEoPGliu5TV54WyK8b-62">
          <mxGeometry relative="1" as="geometry" />
        </mxCell>
        <mxCell id="LaMEoPGliu5TV54WyK8b-80" value="especialidad" style="ellipse;whiteSpace=wrap;html=1;align=center;labelBackgroundColor=none;fillColor=#0050ef;fontColor=#ffffff;strokeColor=#001DBC;" vertex="1" parent="1">
          <mxGeometry x="530" y="352.5" width="80" height="32.5" as="geometry" />
        </mxCell>
        <mxCell id="LaMEoPGliu5TV54WyK8b-86" style="edgeStyle=none;curved=1;rounded=0;orthogonalLoop=1;jettySize=auto;html=1;exitX=0;exitY=0.5;exitDx=0;exitDy=0;entryX=1;entryY=0.5;entryDx=0;entryDy=0;fontSize=12;startSize=8;endSize=8;endArrow=none;endFill=0;labelBackgroundColor=none;fontColor=default;" edge="1" parent="1" source="LaMEoPGliu5TV54WyK8b-81" target="LaMEoPGliu5TV54WyK8b-62">
          <mxGeometry relative="1" as="geometry" />
        </mxCell>
        <mxCell id="LaMEoPGliu5TV54WyK8b-81" value="nombre" style="ellipse;whiteSpace=wrap;html=1;align=center;labelBackgroundColor=none;fillColor=#0050ef;fontColor=#ffffff;strokeColor=#001DBC;" vertex="1" parent="1">
          <mxGeometry x="530" y="390" width="60" height="32.5" as="geometry" />
        </mxCell>
        <mxCell id="LaMEoPGliu5TV54WyK8b-87" style="edgeStyle=none;curved=1;rounded=0;orthogonalLoop=1;jettySize=auto;html=1;exitX=0;exitY=0.5;exitDx=0;exitDy=0;entryX=0.75;entryY=1;entryDx=0;entryDy=0;fontSize=12;startSize=8;endSize=8;endArrow=none;endFill=0;labelBackgroundColor=none;fontColor=default;" edge="1" parent="1" source="LaMEoPGliu5TV54WyK8b-82" target="LaMEoPGliu5TV54WyK8b-62">
          <mxGeometry relative="1" as="geometry" />
        </mxCell>
        <mxCell id="LaMEoPGliu5TV54WyK8b-82" value="cedula" style="ellipse;whiteSpace=wrap;html=1;align=center;labelBackgroundColor=none;fillColor=#0050ef;fontColor=#ffffff;strokeColor=#001DBC;" vertex="1" parent="1">
          <mxGeometry x="510" y="422.5" width="57" height="30" as="geometry" />
        </mxCell>
        <mxCell id="LaMEoPGliu5TV54WyK8b-89" value="consulta" style="shape=rhombus;perimeter=rhombusPerimeter;whiteSpace=wrap;html=1;align=center;labelBackgroundColor=none;fillColor=#647687;fontColor=#ffffff;strokeColor=#314354;" vertex="1" parent="1">
          <mxGeometry x="430" y="452.5" width="80" height="50" as="geometry" />
        </mxCell>
        <mxCell id="LaMEoPGliu5TV54WyK8b-90" value="" style="endArrow=none;html=1;rounded=0;fontSize=12;startSize=8;endSize=8;curved=1;entryX=0.5;entryY=1;entryDx=0;entryDy=0;exitX=0.5;exitY=0;exitDx=0;exitDy=0;labelBackgroundColor=none;fontColor=default;" edge="1" parent="1" source="LaMEoPGliu5TV54WyK8b-89" target="LaMEoPGliu5TV54WyK8b-62">
          <mxGeometry relative="1" as="geometry">
            <mxPoint x="430" y="500" as="sourcePoint" />
            <mxPoint x="590" y="500" as="targetPoint" />
          </mxGeometry>
        </mxCell>
        <mxCell id="LaMEoPGliu5TV54WyK8b-91" value="N" style="resizable=0;html=1;whiteSpace=wrap;align=right;verticalAlign=bottom;labelBackgroundColor=none;" connectable="0" vertex="1" parent="LaMEoPGliu5TV54WyK8b-90">
          <mxGeometry x="1" relative="1" as="geometry">
            <mxPoint y="17" as="offset" />
          </mxGeometry>
        </mxCell>
        <mxCell id="LaMEoPGliu5TV54WyK8b-97" style="edgeStyle=none;curved=1;rounded=0;orthogonalLoop=1;jettySize=auto;html=1;exitX=1;exitY=0.5;exitDx=0;exitDy=0;entryX=0;entryY=0;entryDx=0;entryDy=0;fontSize=12;startSize=8;endSize=8;endArrow=none;endFill=0;labelBackgroundColor=none;fontColor=default;" edge="1" parent="1" source="LaMEoPGliu5TV54WyK8b-92" target="LaMEoPGliu5TV54WyK8b-89">
          <mxGeometry relative="1" as="geometry" />
        </mxCell>
        <mxCell id="LaMEoPGliu5TV54WyK8b-92" value="fecha" style="ellipse;whiteSpace=wrap;html=1;align=center;labelBackgroundColor=none;fillColor=#0050ef;fontColor=#ffffff;strokeColor=#001DBC;" vertex="1" parent="1">
          <mxGeometry x="360" y="450" width="60" height="20" as="geometry" />
        </mxCell>
        <mxCell id="LaMEoPGliu5TV54WyK8b-93" value="diagnostico" style="ellipse;whiteSpace=wrap;html=1;align=center;labelBackgroundColor=none;fillColor=#0050ef;fontColor=#ffffff;strokeColor=#001DBC;" vertex="1" parent="1">
          <mxGeometry x="340" y="490" width="80" height="30" as="geometry" />
        </mxCell>
        <mxCell id="LaMEoPGliu5TV54WyK8b-94" value="" style="endArrow=none;html=1;rounded=0;fontSize=12;startSize=8;endSize=8;curved=1;exitX=0.5;exitY=1;exitDx=0;exitDy=0;entryX=0.5;entryY=0;entryDx=0;entryDy=0;labelBackgroundColor=none;fontColor=default;" edge="1" parent="1" source="LaMEoPGliu5TV54WyK8b-89" target="LaMEoPGliu5TV54WyK8b-98">
          <mxGeometry relative="1" as="geometry">
            <mxPoint x="470" y="560" as="sourcePoint" />
            <mxPoint x="470" y="550" as="targetPoint" />
          </mxGeometry>
        </mxCell>
        <mxCell id="LaMEoPGliu5TV54WyK8b-95" value="N" style="resizable=0;html=1;whiteSpace=wrap;align=right;verticalAlign=bottom;labelBackgroundColor=none;" connectable="0" vertex="1" parent="LaMEoPGliu5TV54WyK8b-94">
          <mxGeometry x="1" relative="1" as="geometry">
            <mxPoint as="offset" />
          </mxGeometry>
        </mxCell>
        <mxCell id="LaMEoPGliu5TV54WyK8b-96" style="edgeStyle=none;curved=1;rounded=0;orthogonalLoop=1;jettySize=auto;html=1;exitX=1;exitY=0.5;exitDx=0;exitDy=0;entryX=0;entryY=1;entryDx=0;entryDy=0;fontSize=12;startSize=8;endSize=8;endArrow=none;endFill=0;labelBackgroundColor=none;fontColor=default;" edge="1" parent="1" source="LaMEoPGliu5TV54WyK8b-93" target="LaMEoPGliu5TV54WyK8b-89">
          <mxGeometry relative="1" as="geometry" />
        </mxCell>
        <mxCell id="LaMEoPGliu5TV54WyK8b-98" value="mascota" style="whiteSpace=wrap;html=1;align=center;labelBackgroundColor=none;fillColor=#008a00;fontColor=#ffffff;strokeColor=#005700;" vertex="1" parent="1">
          <mxGeometry x="430" y="540" width="80" height="35" as="geometry" />
        </mxCell>
        <mxCell id="LaMEoPGliu5TV54WyK8b-107" style="edgeStyle=none;curved=1;rounded=0;orthogonalLoop=1;jettySize=auto;html=1;exitX=1;exitY=0;exitDx=0;exitDy=0;entryX=0.75;entryY=1;entryDx=0;entryDy=0;fontSize=12;startSize=8;endSize=8;endArrow=none;endFill=0;labelBackgroundColor=none;fontColor=default;" edge="1" parent="1" source="LaMEoPGliu5TV54WyK8b-99" target="LaMEoPGliu5TV54WyK8b-98">
          <mxGeometry relative="1" as="geometry" />
        </mxCell>
        <mxCell id="LaMEoPGliu5TV54WyK8b-99" value="nombre" style="ellipse;whiteSpace=wrap;html=1;align=center;labelBackgroundColor=none;fillColor=#0050ef;fontColor=#ffffff;strokeColor=#001DBC;" vertex="1" parent="1">
          <mxGeometry x="380" y="600" width="100" height="40" as="geometry" />
        </mxCell>
        <mxCell id="LaMEoPGliu5TV54WyK8b-106" style="edgeStyle=none;curved=1;rounded=0;orthogonalLoop=1;jettySize=auto;html=1;exitX=0.5;exitY=0;exitDx=0;exitDy=0;entryX=1;entryY=1;entryDx=0;entryDy=0;fontSize=12;startSize=8;endSize=8;endArrow=none;endFill=0;labelBackgroundColor=none;fontColor=default;" edge="1" parent="1" source="LaMEoPGliu5TV54WyK8b-100" target="LaMEoPGliu5TV54WyK8b-98">
          <mxGeometry relative="1" as="geometry" />
        </mxCell>
        <mxCell id="LaMEoPGliu5TV54WyK8b-100" value="fecha_nacimiento" style="ellipse;whiteSpace=wrap;html=1;align=center;labelBackgroundColor=none;fillColor=#0050ef;fontColor=#ffffff;strokeColor=#001DBC;" vertex="1" parent="1">
          <mxGeometry x="490" y="600" width="100" height="40" as="geometry" />
        </mxCell>
        <mxCell id="LaMEoPGliu5TV54WyK8b-105" style="edgeStyle=none;curved=1;rounded=0;orthogonalLoop=1;jettySize=auto;html=1;exitX=0;exitY=0.5;exitDx=0;exitDy=0;entryX=1;entryY=0.5;entryDx=0;entryDy=0;fontSize=12;startSize=8;endSize=8;endArrow=none;endFill=0;labelBackgroundColor=none;fontColor=default;" edge="1" parent="1" source="LaMEoPGliu5TV54WyK8b-101" target="LaMEoPGliu5TV54WyK8b-98">
          <mxGeometry relative="1" as="geometry" />
        </mxCell>
        <mxCell id="LaMEoPGliu5TV54WyK8b-101" value="tipo" style="ellipse;whiteSpace=wrap;html=1;align=center;labelBackgroundColor=none;fillColor=#0050ef;fontColor=#ffffff;strokeColor=#001DBC;" vertex="1" parent="1">
          <mxGeometry x="530" y="550" width="100" height="40" as="geometry" />
        </mxCell>
        <mxCell id="LaMEoPGliu5TV54WyK8b-104" style="edgeStyle=none;curved=1;rounded=0;orthogonalLoop=1;jettySize=auto;html=1;exitX=0;exitY=0.5;exitDx=0;exitDy=0;entryX=1;entryY=0;entryDx=0;entryDy=0;fontSize=12;startSize=8;endSize=8;endArrow=none;endFill=0;labelBackgroundColor=none;fontColor=default;" edge="1" parent="1" source="LaMEoPGliu5TV54WyK8b-103" target="LaMEoPGliu5TV54WyK8b-98">
          <mxGeometry relative="1" as="geometry" />
        </mxCell>
        <mxCell id="LaMEoPGliu5TV54WyK8b-103" value="id" style="ellipse;whiteSpace=wrap;html=1;align=center;fontStyle=4;labelBackgroundColor=none;fillColor=#0050ef;fontColor=#ffffff;strokeColor=#001DBC;" vertex="1" parent="1">
          <mxGeometry x="525" y="502.5" width="100" height="40" as="geometry" />
        </mxCell>
        <mxCell id="LaMEoPGliu5TV54WyK8b-110" value="" style="endArrow=none;html=1;rounded=0;fontSize=12;startSize=8;endSize=8;curved=1;entryX=0;entryY=0.5;entryDx=0;entryDy=0;exitX=1;exitY=0.5;exitDx=0;exitDy=0;labelBackgroundColor=none;fontColor=default;" edge="1" parent="1" source="LaMEoPGliu5TV54WyK8b-112" target="LaMEoPGliu5TV54WyK8b-98">
          <mxGeometry relative="1" as="geometry">
            <mxPoint x="250" y="569.57" as="sourcePoint" />
            <mxPoint x="410" y="569.57" as="targetPoint" />
          </mxGeometry>
        </mxCell>
        <mxCell id="LaMEoPGliu5TV54WyK8b-111" value="N" style="resizable=0;html=1;whiteSpace=wrap;align=right;verticalAlign=bottom;labelBackgroundColor=none;" connectable="0" vertex="1" parent="LaMEoPGliu5TV54WyK8b-110">
          <mxGeometry x="1" relative="1" as="geometry" />
        </mxCell>
        <mxCell id="LaMEoPGliu5TV54WyK8b-112" value="llevar" style="shape=rhombus;perimeter=rhombusPerimeter;whiteSpace=wrap;html=1;align=center;labelBackgroundColor=none;fillColor=#647687;fontColor=#ffffff;strokeColor=#314354;" vertex="1" parent="1">
          <mxGeometry x="290" y="533.75" width="80" height="47.5" as="geometry" />
        </mxCell>
        <mxCell id="LaMEoPGliu5TV54WyK8b-113" value="propietario" style="whiteSpace=wrap;html=1;align=center;labelBackgroundColor=none;fillColor=#008a00;fontColor=#ffffff;strokeColor=#005700;" vertex="1" parent="1">
          <mxGeometry x="120" y="537.5" width="100" height="40" as="geometry" />
        </mxCell>
        <mxCell id="LaMEoPGliu5TV54WyK8b-114" value="" style="endArrow=none;html=1;rounded=0;fontSize=12;startSize=8;endSize=8;curved=1;entryX=1;entryY=0.5;entryDx=0;entryDy=0;exitX=0;exitY=0.5;exitDx=0;exitDy=0;labelBackgroundColor=none;fontColor=default;" edge="1" parent="1" source="LaMEoPGliu5TV54WyK8b-112" target="LaMEoPGliu5TV54WyK8b-113">
          <mxGeometry relative="1" as="geometry">
            <mxPoint x="110" y="620" as="sourcePoint" />
            <mxPoint x="270" y="620" as="targetPoint" />
          </mxGeometry>
        </mxCell>
        <mxCell id="LaMEoPGliu5TV54WyK8b-115" value="1" style="resizable=0;html=1;whiteSpace=wrap;align=right;verticalAlign=bottom;labelBackgroundColor=none;" connectable="0" vertex="1" parent="LaMEoPGliu5TV54WyK8b-114">
          <mxGeometry x="1" relative="1" as="geometry">
            <mxPoint x="20" as="offset" />
          </mxGeometry>
        </mxCell>
        <mxCell id="LaMEoPGliu5TV54WyK8b-122" style="edgeStyle=none;curved=1;rounded=0;orthogonalLoop=1;jettySize=auto;html=1;exitX=0.5;exitY=1;exitDx=0;exitDy=0;entryX=1;entryY=0;entryDx=0;entryDy=0;fontSize=12;startSize=8;endSize=8;endArrow=none;endFill=0;labelBackgroundColor=none;fontColor=default;" edge="1" parent="1" source="LaMEoPGliu5TV54WyK8b-117" target="LaMEoPGliu5TV54WyK8b-113">
          <mxGeometry relative="1" as="geometry" />
        </mxCell>
        <mxCell id="LaMEoPGliu5TV54WyK8b-117" value="cedula" style="ellipse;whiteSpace=wrap;html=1;align=center;fontStyle=4;labelBackgroundColor=none;fillColor=#0050ef;fontColor=#ffffff;strokeColor=#001DBC;" vertex="1" parent="1">
          <mxGeometry x="220" y="490" width="70" height="30" as="geometry" />
        </mxCell>
        <mxCell id="LaMEoPGliu5TV54WyK8b-126" style="edgeStyle=none;curved=1;rounded=0;orthogonalLoop=1;jettySize=auto;html=1;exitX=0.5;exitY=0;exitDx=0;exitDy=0;entryX=0.75;entryY=1;entryDx=0;entryDy=0;fontSize=12;startSize=8;endSize=8;endArrow=none;endFill=0;labelBackgroundColor=none;fontColor=default;" edge="1" parent="1" source="LaMEoPGliu5TV54WyK8b-118" target="LaMEoPGliu5TV54WyK8b-113">
          <mxGeometry relative="1" as="geometry" />
        </mxCell>
        <mxCell id="LaMEoPGliu5TV54WyK8b-118" value="nombre" style="ellipse;whiteSpace=wrap;html=1;align=center;labelBackgroundColor=none;fillColor=#0050ef;fontColor=#ffffff;strokeColor=#001DBC;" vertex="1" parent="1">
          <mxGeometry x="205" y="590" width="100" height="40" as="geometry" />
        </mxCell>
        <mxCell id="LaMEoPGliu5TV54WyK8b-119" value="direccion" style="ellipse;whiteSpace=wrap;html=1;align=center;labelBackgroundColor=none;fillColor=#0050ef;fontColor=#ffffff;strokeColor=#001DBC;" vertex="1" parent="1">
          <mxGeometry x="70" y="470" width="100" height="40" as="geometry" />
        </mxCell>
        <mxCell id="LaMEoPGliu5TV54WyK8b-123" style="edgeStyle=none;curved=1;rounded=0;orthogonalLoop=1;jettySize=auto;html=1;exitX=0.5;exitY=1;exitDx=0;exitDy=0;entryX=0.75;entryY=0;entryDx=0;entryDy=0;fontSize=12;startSize=8;endSize=8;endArrow=none;endFill=0;labelBackgroundColor=none;fontColor=default;" edge="1" parent="1" source="LaMEoPGliu5TV54WyK8b-120" target="LaMEoPGliu5TV54WyK8b-113">
          <mxGeometry relative="1" as="geometry" />
        </mxCell>
        <mxCell id="LaMEoPGliu5TV54WyK8b-120" value="apellido" style="ellipse;whiteSpace=wrap;html=1;align=center;labelBackgroundColor=none;fillColor=#0050ef;fontColor=#ffffff;strokeColor=#001DBC;" vertex="1" parent="1">
          <mxGeometry x="150" y="440" width="100" height="40" as="geometry" />
        </mxCell>
        <mxCell id="LaMEoPGliu5TV54WyK8b-125" style="edgeStyle=none;curved=1;rounded=0;orthogonalLoop=1;jettySize=auto;html=1;exitX=0.5;exitY=0;exitDx=0;exitDy=0;entryX=0.25;entryY=1;entryDx=0;entryDy=0;fontSize=12;startSize=8;endSize=8;endArrow=none;endFill=0;labelBackgroundColor=none;fontColor=default;" edge="1" parent="1" source="LaMEoPGliu5TV54WyK8b-121" target="LaMEoPGliu5TV54WyK8b-113">
          <mxGeometry relative="1" as="geometry" />
        </mxCell>
        <mxCell id="LaMEoPGliu5TV54WyK8b-121" value="telefonos" style="ellipse;shape=doubleEllipse;margin=3;whiteSpace=wrap;html=1;align=center;labelBackgroundColor=none;fillColor=#0050ef;fontColor=#ffffff;strokeColor=#001DBC;" vertex="1" parent="1">
          <mxGeometry x="50" y="585" width="100" height="40" as="geometry" />
        </mxCell>
        <mxCell id="LaMEoPGliu5TV54WyK8b-124" style="edgeStyle=none;curved=1;rounded=0;orthogonalLoop=1;jettySize=auto;html=1;exitX=0.5;exitY=1;exitDx=0;exitDy=0;entryX=0.37;entryY=0.008;entryDx=0;entryDy=0;entryPerimeter=0;fontSize=12;startSize=8;endSize=8;endArrow=none;endFill=0;labelBackgroundColor=none;fontColor=default;" edge="1" parent="1" source="LaMEoPGliu5TV54WyK8b-119" target="LaMEoPGliu5TV54WyK8b-113">
          <mxGeometry relative="1" as="geometry" />
        </mxCell>
        <mxCell id="LaMEoPGliu5TV54WyK8b-128" value="tiene" style="shape=rhombus;perimeter=rhombusPerimeter;whiteSpace=wrap;html=1;align=center;fillColor=#647687;fontColor=#ffffff;strokeColor=#314354;" vertex="1" parent="1">
          <mxGeometry x="130" y="630" width="80" height="50" as="geometry" />
        </mxCell>
        <mxCell id="LaMEoPGliu5TV54WyK8b-129" value="" style="endArrow=none;html=1;rounded=0;fontSize=12;startSize=8;endSize=8;curved=1;entryX=0.5;entryY=1;entryDx=0;entryDy=0;exitX=0.5;exitY=0;exitDx=0;exitDy=0;" edge="1" parent="1" source="LaMEoPGliu5TV54WyK8b-128" target="LaMEoPGliu5TV54WyK8b-113">
          <mxGeometry relative="1" as="geometry">
            <mxPoint x="140" y="610" as="sourcePoint" />
            <mxPoint x="300" y="610" as="targetPoint" />
          </mxGeometry>
        </mxCell>
        <mxCell id="LaMEoPGliu5TV54WyK8b-130" value="1" style="resizable=0;html=1;whiteSpace=wrap;align=right;verticalAlign=bottom;" connectable="0" vertex="1" parent="LaMEoPGliu5TV54WyK8b-129">
          <mxGeometry x="1" relative="1" as="geometry">
            <mxPoint y="22" as="offset" />
          </mxGeometry>
        </mxCell>
        <mxCell id="LaMEoPGliu5TV54WyK8b-131" value="contacto_familiar" style="shape=ext;margin=3;double=1;whiteSpace=wrap;html=1;align=center;fillColor=#008a00;fontColor=#ffffff;strokeColor=#005700;" vertex="1" parent="1">
          <mxGeometry x="110" y="740" width="120" height="40" as="geometry" />
        </mxCell>
        <mxCell id="LaMEoPGliu5TV54WyK8b-132" value="" style="endArrow=none;html=1;rounded=0;fontSize=12;startSize=8;endSize=8;curved=1;entryX=0.5;entryY=0;entryDx=0;entryDy=0;exitX=0.5;exitY=1;exitDx=0;exitDy=0;" edge="1" parent="1" source="LaMEoPGliu5TV54WyK8b-128" target="LaMEoPGliu5TV54WyK8b-131">
          <mxGeometry relative="1" as="geometry">
            <mxPoint x="180" y="640" as="sourcePoint" />
            <mxPoint x="180" y="588" as="targetPoint" />
          </mxGeometry>
        </mxCell>
        <mxCell id="LaMEoPGliu5TV54WyK8b-133" value="1" style="resizable=0;html=1;whiteSpace=wrap;align=right;verticalAlign=bottom;" connectable="0" vertex="1" parent="LaMEoPGliu5TV54WyK8b-132">
          <mxGeometry x="1" relative="1" as="geometry">
            <mxPoint as="offset" />
          </mxGeometry>
        </mxCell>
        <mxCell id="LaMEoPGliu5TV54WyK8b-139" style="edgeStyle=none;curved=1;rounded=0;orthogonalLoop=1;jettySize=auto;html=1;exitX=0.5;exitY=0;exitDx=0;exitDy=0;entryX=0.5;entryY=1;entryDx=0;entryDy=0;fontSize=12;startSize=8;endSize=8;endArrow=none;endFill=0;" edge="1" parent="1" source="LaMEoPGliu5TV54WyK8b-134" target="LaMEoPGliu5TV54WyK8b-131">
          <mxGeometry relative="1" as="geometry" />
        </mxCell>
        <mxCell id="LaMEoPGliu5TV54WyK8b-134" value="nombre" style="ellipse;whiteSpace=wrap;html=1;align=center;fillColor=#0050ef;fontColor=#ffffff;strokeColor=#001DBC;" vertex="1" parent="1">
          <mxGeometry x="80" y="810" width="100" height="40" as="geometry" />
        </mxCell>
        <mxCell id="LaMEoPGliu5TV54WyK8b-138" style="edgeStyle=none;curved=1;rounded=0;orthogonalLoop=1;jettySize=auto;html=1;exitX=0.5;exitY=0;exitDx=0;exitDy=0;entryX=0.75;entryY=1;entryDx=0;entryDy=0;fontSize=12;startSize=8;endSize=8;endArrow=none;endFill=0;" edge="1" parent="1" source="LaMEoPGliu5TV54WyK8b-135" target="LaMEoPGliu5TV54WyK8b-131">
          <mxGeometry relative="1" as="geometry" />
        </mxCell>
        <mxCell id="LaMEoPGliu5TV54WyK8b-135" value="cedula" style="ellipse;whiteSpace=wrap;html=1;align=center;fontStyle=4;fillColor=#0050ef;fontColor=#ffffff;strokeColor=#001DBC;" vertex="1" parent="1">
          <mxGeometry x="200" y="810" width="100" height="40" as="geometry" />
        </mxCell>
        <mxCell id="LaMEoPGliu5TV54WyK8b-137" style="edgeStyle=none;curved=1;rounded=0;orthogonalLoop=1;jettySize=auto;html=1;exitX=0;exitY=0.5;exitDx=0;exitDy=0;entryX=1;entryY=0.5;entryDx=0;entryDy=0;fontSize=12;startSize=8;endSize=8;endArrow=none;endFill=0;" edge="1" parent="1" source="LaMEoPGliu5TV54WyK8b-136" target="LaMEoPGliu5TV54WyK8b-131">
          <mxGeometry relative="1" as="geometry" />
        </mxCell>
        <mxCell id="LaMEoPGliu5TV54WyK8b-136" value="telefono" style="ellipse;whiteSpace=wrap;html=1;align=center;fillColor=#0050ef;fontColor=#ffffff;strokeColor=#001DBC;" vertex="1" parent="1">
          <mxGeometry x="260" y="740" width="100" height="40" as="geometry" />
        </mxCell>
      </root>
    </mxGraphModel>
  </diagram>
</mxfile>
